G75*
%MOIN*%
%OFA0B0*%
%FSLAX24Y24*%
%IPPOS*%
%LPD*%
%AMOC8*
5,1,8,0,0,1.08239X$1,22.5*
%
%ADD10R,0.0521X0.0521*%
%ADD11C,0.0521*%
%ADD12C,0.0640*%
%ADD13OC8,0.0528*%
%ADD14C,0.0580*%
%ADD15OC8,0.0710*%
%ADD16C,0.0710*%
%ADD17C,0.1380*%
%ADD18C,0.0584*%
%ADD19OC8,0.0940*%
%ADD20R,0.0880X0.0340*%
%ADD21C,0.0528*%
%ADD22C,0.0500*%
%ADD23C,0.1080*%
%ADD24OC8,0.1080*%
%ADD25C,0.2380*%
%ADD26OC8,0.0584*%
%ADD27C,0.0486*%
%ADD28C,0.0822*%
%ADD29C,0.0740*%
%ADD30OC8,0.0640*%
%ADD31C,0.2080*%
%ADD32C,0.0840*%
%ADD33C,0.0820*%
%ADD34R,0.0686X0.0686*%
%ADD35R,0.1064X0.0789*%
%ADD36R,0.1064X0.1064*%
%ADD37C,0.0530*%
%ADD38C,0.0440*%
%ADD39C,0.0560*%
D10*
X004862Y023190D03*
X005862Y023190D03*
X016862Y023190D03*
X016862Y043190D03*
X005862Y044190D03*
X004862Y044190D03*
D11*
X016862Y044190D03*
X017862Y044190D03*
X018862Y044190D03*
X018862Y043190D03*
X017862Y043190D03*
X019862Y043190D03*
X020862Y043190D03*
X020862Y044190D03*
X019862Y044190D03*
X021862Y044190D03*
X022862Y044190D03*
X022862Y043190D03*
X021862Y043190D03*
X023862Y043190D03*
X024862Y043190D03*
X024862Y044190D03*
X023862Y044190D03*
X025862Y044190D03*
X026862Y044190D03*
X026862Y043190D03*
X025862Y043190D03*
X027862Y043190D03*
X028862Y043190D03*
X028862Y044190D03*
X027862Y044190D03*
X029862Y044190D03*
X030862Y044190D03*
X030862Y043190D03*
X029862Y043190D03*
X031862Y043190D03*
X032862Y043190D03*
X032862Y044190D03*
X031862Y044190D03*
X033862Y044190D03*
X034862Y044190D03*
X034862Y043190D03*
X033862Y043190D03*
X035862Y043190D03*
X036862Y043190D03*
X037862Y043190D03*
X037862Y044190D03*
X036862Y044190D03*
X035862Y044190D03*
X038862Y044190D03*
X039862Y044190D03*
X039862Y043190D03*
X038862Y043190D03*
X040862Y043190D03*
X040862Y044190D03*
X040862Y024190D03*
X040862Y023190D03*
X039862Y023190D03*
X038862Y023190D03*
X038862Y024190D03*
X039862Y024190D03*
X037862Y024190D03*
X036862Y024190D03*
X035862Y024190D03*
X035862Y023190D03*
X036862Y023190D03*
X037862Y023190D03*
X034862Y023190D03*
X033862Y023190D03*
X033862Y024190D03*
X034862Y024190D03*
X032862Y024190D03*
X031862Y024190D03*
X031862Y023190D03*
X032862Y023190D03*
X030862Y023190D03*
X029862Y023190D03*
X029862Y024190D03*
X030862Y024190D03*
X028862Y024190D03*
X027862Y024190D03*
X027862Y023190D03*
X028862Y023190D03*
X026862Y023190D03*
X025862Y023190D03*
X025862Y024190D03*
X026862Y024190D03*
X024862Y024190D03*
X023862Y024190D03*
X023862Y023190D03*
X024862Y023190D03*
X022862Y023190D03*
X021862Y023190D03*
X021862Y024190D03*
X022862Y024190D03*
X020862Y024190D03*
X019862Y024190D03*
X019862Y023190D03*
X020862Y023190D03*
X018862Y023190D03*
X017862Y023190D03*
X017862Y024190D03*
X018862Y024190D03*
X016862Y024190D03*
D12*
X019162Y004470D02*
X019162Y003910D01*
X020162Y003910D02*
X020162Y004470D01*
X021162Y004470D02*
X021162Y003910D01*
X022162Y003910D02*
X022162Y004470D01*
X023162Y004470D02*
X023162Y003910D01*
X024462Y003910D02*
X024462Y004470D01*
X025462Y004470D02*
X025462Y003910D01*
X026462Y003910D02*
X026462Y004470D01*
X027462Y004470D02*
X027462Y003910D01*
X028462Y003910D02*
X028462Y004470D01*
X029762Y004470D02*
X029762Y003910D01*
X030762Y003910D02*
X030762Y004470D01*
X031762Y004470D02*
X031762Y003910D01*
X036562Y003910D02*
X036562Y004470D01*
X037562Y004470D02*
X037562Y003910D01*
X038562Y003910D02*
X038562Y004470D01*
X039562Y004470D02*
X039562Y003910D01*
X040562Y003910D02*
X040562Y004470D01*
X041562Y004470D02*
X041562Y003910D01*
X042862Y003910D02*
X042862Y004470D01*
X043862Y004470D02*
X043862Y003910D01*
X044862Y003910D02*
X044862Y004470D01*
X045862Y004470D02*
X045862Y003910D01*
X046862Y003910D02*
X046862Y004470D01*
X047862Y004470D02*
X047862Y003910D01*
X049662Y003910D02*
X049662Y004470D01*
X050662Y004470D02*
X050662Y003910D01*
X051662Y003910D02*
X051662Y004470D01*
X052662Y004470D02*
X052662Y003910D01*
X053662Y003910D02*
X053662Y004470D01*
X054662Y004470D02*
X054662Y003910D01*
X055862Y003910D02*
X055862Y004470D01*
X056862Y004470D02*
X056862Y003910D01*
X057862Y003910D02*
X057862Y004470D01*
X058862Y004470D02*
X058862Y003910D01*
X059862Y003910D02*
X059862Y004470D01*
X060862Y004470D02*
X060862Y003910D01*
X061062Y009310D02*
X061062Y009870D01*
X060062Y009870D02*
X060062Y009310D01*
X059062Y009310D02*
X059062Y009870D01*
X058062Y009870D02*
X058062Y009310D01*
X057062Y009310D02*
X057062Y009870D01*
X056062Y009870D02*
X056062Y009310D01*
X055982Y019290D02*
X056542Y019290D01*
X056542Y020290D02*
X055982Y020290D01*
X055982Y021290D02*
X056542Y021290D01*
X056542Y026490D02*
X055982Y026490D01*
X055982Y027490D02*
X056542Y027490D01*
X056542Y028490D02*
X055982Y028490D01*
X053192Y048990D02*
X052632Y048990D01*
X052632Y049990D02*
X053192Y049990D01*
X053192Y050990D02*
X052632Y050990D01*
X052632Y051990D02*
X053192Y051990D01*
X050192Y051990D02*
X049632Y051990D01*
X049632Y050990D02*
X050192Y050990D01*
X050192Y049990D02*
X049632Y049990D01*
X049632Y048990D02*
X050192Y048990D01*
X047192Y048990D02*
X046632Y048990D01*
X046632Y049990D02*
X047192Y049990D01*
X047192Y050990D02*
X046632Y050990D01*
X046632Y051990D02*
X047192Y051990D01*
X044192Y051990D02*
X043632Y051990D01*
X043632Y050990D02*
X044192Y050990D01*
X044192Y049990D02*
X043632Y049990D01*
X043632Y048990D02*
X044192Y048990D01*
X041192Y048990D02*
X040632Y048990D01*
X040632Y049990D02*
X041192Y049990D01*
X041192Y050990D02*
X040632Y050990D01*
X040632Y051990D02*
X041192Y051990D01*
X038192Y051990D02*
X037632Y051990D01*
X037632Y050990D02*
X038192Y050990D01*
X038192Y049990D02*
X037632Y049990D01*
X037632Y048990D02*
X038192Y048990D01*
X035192Y048990D02*
X034632Y048990D01*
X034632Y049990D02*
X035192Y049990D01*
X035192Y050990D02*
X034632Y050990D01*
X034632Y051990D02*
X035192Y051990D01*
X032192Y051990D02*
X031632Y051990D01*
X031632Y050990D02*
X032192Y050990D01*
X032192Y049990D02*
X031632Y049990D01*
X031632Y048990D02*
X032192Y048990D01*
X029192Y048990D02*
X028632Y048990D01*
X028632Y049990D02*
X029192Y049990D01*
X029192Y050990D02*
X028632Y050990D01*
X028632Y051990D02*
X029192Y051990D01*
X026192Y051990D02*
X025632Y051990D01*
X025632Y050990D02*
X026192Y050990D01*
X026192Y049990D02*
X025632Y049990D01*
X025632Y048990D02*
X026192Y048990D01*
X023192Y048990D02*
X022632Y048990D01*
X022632Y049990D02*
X023192Y049990D01*
X023192Y050990D02*
X022632Y050990D01*
X022632Y051990D02*
X023192Y051990D01*
X020192Y051990D02*
X019632Y051990D01*
X019632Y050990D02*
X020192Y050990D01*
X020192Y049990D02*
X019632Y049990D01*
X019632Y048990D02*
X020192Y048990D01*
X017192Y048990D02*
X016632Y048990D01*
X016632Y049990D02*
X017192Y049990D01*
X017192Y050990D02*
X016632Y050990D01*
X016632Y051990D02*
X017192Y051990D01*
X014192Y051990D02*
X013632Y051990D01*
X013632Y050990D02*
X014192Y050990D01*
X014192Y049990D02*
X013632Y049990D01*
X013632Y048990D02*
X014192Y048990D01*
X011192Y048990D02*
X010632Y048990D01*
X010632Y049990D02*
X011192Y049990D01*
X011192Y050990D02*
X010632Y050990D01*
X010632Y051990D02*
X011192Y051990D01*
X008192Y051990D02*
X007632Y051990D01*
X007632Y050990D02*
X008192Y050990D01*
X008192Y049990D02*
X007632Y049990D01*
X007632Y048990D02*
X008192Y048990D01*
D13*
X006112Y049190D03*
X006112Y048190D03*
X006112Y047190D03*
X006112Y046190D03*
X006112Y045140D03*
X003112Y045140D03*
X003112Y046190D03*
X003112Y047190D03*
X003112Y048190D03*
X003112Y049190D03*
X003112Y050190D03*
X006112Y050190D03*
X006912Y053490D03*
X008912Y053490D03*
X009912Y053490D03*
X011912Y053490D03*
X012912Y053490D03*
X014912Y053490D03*
X015912Y053490D03*
X017912Y053490D03*
X018912Y053490D03*
X020912Y053490D03*
X021912Y053490D03*
X023912Y053490D03*
X024912Y053490D03*
X026912Y053490D03*
X027912Y053490D03*
X029912Y053490D03*
X030912Y053490D03*
X032912Y053490D03*
X033912Y053490D03*
X035912Y053490D03*
X036912Y053490D03*
X038912Y053490D03*
X039912Y053490D03*
X041912Y053490D03*
X042912Y053490D03*
X044912Y053490D03*
X045912Y053490D03*
X047912Y053490D03*
X048912Y053490D03*
X050912Y053490D03*
X051912Y053490D03*
X053912Y053490D03*
X053912Y055490D03*
X052912Y055490D03*
X051912Y055490D03*
X050912Y055490D03*
X049912Y055490D03*
X048912Y055490D03*
X047912Y055490D03*
X046912Y055490D03*
X045912Y055490D03*
X044912Y055490D03*
X043912Y055490D03*
X042912Y055490D03*
X041912Y055490D03*
X040912Y055490D03*
X039912Y055490D03*
X038912Y055490D03*
X037912Y055490D03*
X036912Y055490D03*
X035912Y055490D03*
X034912Y055490D03*
X033912Y055490D03*
X032912Y055490D03*
X031912Y055490D03*
X030912Y055490D03*
X029912Y055490D03*
X028912Y055490D03*
X027912Y055490D03*
X026912Y055490D03*
X025912Y055490D03*
X024912Y055490D03*
X023912Y055490D03*
X022912Y055490D03*
X021912Y055490D03*
X020912Y055490D03*
X019912Y055490D03*
X018912Y055490D03*
X017912Y055490D03*
X016912Y055490D03*
X015912Y055490D03*
X014912Y055490D03*
X013912Y055490D03*
X012912Y055490D03*
X011912Y055490D03*
X010912Y055490D03*
X009912Y055490D03*
X008912Y055490D03*
X007912Y055490D03*
X006912Y055490D03*
X006912Y058490D03*
X007912Y058490D03*
X008912Y058490D03*
X009912Y058490D03*
X010912Y058490D03*
X011912Y058490D03*
X012912Y058490D03*
X013912Y058490D03*
X014912Y058490D03*
X015912Y058490D03*
X016912Y058490D03*
X017912Y058490D03*
X018912Y058490D03*
X019912Y058490D03*
X020912Y058490D03*
X021912Y058490D03*
X022912Y058490D03*
X023912Y058490D03*
X024912Y058490D03*
X025912Y058490D03*
X026912Y058490D03*
X027912Y058490D03*
X028912Y058490D03*
X029912Y058490D03*
X030912Y058490D03*
X031912Y058490D03*
X032912Y058490D03*
X033912Y058490D03*
X034912Y058490D03*
X035912Y058490D03*
X036912Y058490D03*
X037912Y058490D03*
X038912Y058490D03*
X039912Y058490D03*
X040912Y058490D03*
X041912Y058490D03*
X042912Y058490D03*
X043912Y058490D03*
X044912Y058490D03*
X045912Y058490D03*
X046912Y058490D03*
X047912Y058490D03*
X048912Y058490D03*
X049912Y058490D03*
X050912Y058490D03*
X051912Y058490D03*
X052912Y058490D03*
X053912Y058490D03*
X059812Y045190D03*
X061812Y045190D03*
X051562Y044040D03*
X051562Y042040D03*
X061162Y026290D03*
X061162Y025190D03*
X063162Y025190D03*
X063162Y026290D03*
X047112Y015640D03*
X047112Y014640D03*
X047112Y013640D03*
X047112Y012640D03*
X047112Y011640D03*
X047112Y010640D03*
X044112Y010640D03*
X043612Y010640D03*
X043612Y011640D03*
X044112Y011640D03*
X044112Y012640D03*
X043612Y012640D03*
X043612Y013640D03*
X044112Y013640D03*
X044112Y014640D03*
X043612Y014640D03*
X043612Y015640D03*
X044112Y015640D03*
X040612Y015640D03*
X040112Y015640D03*
X040112Y014640D03*
X040612Y014640D03*
X040612Y013640D03*
X040112Y013640D03*
X040112Y012640D03*
X040612Y012640D03*
X040612Y011640D03*
X040112Y011640D03*
X040112Y010640D03*
X040612Y010640D03*
X037112Y010640D03*
X037112Y011640D03*
X037112Y012640D03*
X037112Y013640D03*
X037112Y014640D03*
X037112Y015640D03*
X033362Y015590D03*
X032262Y017390D03*
X029262Y017390D03*
X033362Y013590D03*
X031762Y011690D03*
X030762Y011690D03*
X029762Y011690D03*
X028462Y009090D03*
X027462Y009090D03*
X026462Y008290D03*
X026462Y006290D03*
X027462Y006090D03*
X028462Y006090D03*
X029762Y008690D03*
X030762Y008690D03*
X031762Y008690D03*
X023162Y008990D03*
X022062Y008990D03*
X021062Y008290D03*
X021062Y006290D03*
X022062Y005990D03*
X023162Y005990D03*
X019662Y010390D03*
X019662Y011390D03*
X016362Y009190D03*
X013362Y009190D03*
X012762Y009190D03*
X009762Y009190D03*
X009062Y009190D03*
X007062Y009190D03*
X004462Y011290D03*
X003462Y011290D03*
X003462Y014290D03*
X004462Y014290D03*
X004062Y017190D03*
X003062Y017190D03*
X003062Y019490D03*
X004062Y019490D03*
X003162Y026690D03*
X003162Y029690D03*
X003162Y038390D03*
X003162Y041390D03*
X017862Y042090D03*
X018862Y042090D03*
X018862Y040090D03*
X017862Y040090D03*
X033962Y028890D03*
X035362Y028890D03*
X035362Y025890D03*
X033962Y025890D03*
X018362Y021890D03*
X016362Y021890D03*
D14*
X014755Y018971D03*
X013967Y018971D03*
X013180Y018971D03*
X012393Y018971D03*
X011605Y018971D03*
X010818Y018971D03*
X010030Y018971D03*
X009243Y018971D03*
X008456Y018971D03*
X007668Y018971D03*
X007668Y010309D03*
X008456Y010309D03*
X009243Y010309D03*
X010030Y010309D03*
X010818Y010309D03*
X011605Y010309D03*
X012393Y010309D03*
X013180Y010309D03*
X013967Y010309D03*
X014755Y010309D03*
X055362Y053490D03*
X060362Y053490D03*
D15*
X060362Y050890D03*
X055362Y050890D03*
X062862Y028490D03*
X062862Y022990D03*
X025562Y017290D03*
X025562Y015090D03*
X025562Y012890D03*
X025562Y010690D03*
X005062Y009190D03*
D16*
X006062Y009190D03*
X025562Y009690D03*
X025562Y011890D03*
X025562Y014090D03*
X025562Y016290D03*
X055362Y051890D03*
X060362Y051890D03*
X061462Y028490D03*
X061462Y022990D03*
D17*
X050362Y020290D03*
X050362Y027490D03*
D18*
X061262Y019390D03*
X061262Y018390D03*
X064362Y027390D03*
X064362Y028390D03*
D19*
X063962Y015790D03*
X063962Y013790D03*
X063962Y011790D03*
X063962Y009790D03*
D20*
X060742Y035740D03*
X060742Y036240D03*
X060742Y036740D03*
X060742Y037240D03*
X060742Y037740D03*
X060742Y038240D03*
X060742Y038740D03*
X060742Y039240D03*
X060742Y039740D03*
X060742Y040240D03*
X060742Y040740D03*
X060742Y041240D03*
X056782Y041240D03*
X056782Y040740D03*
X056782Y040240D03*
X056782Y039740D03*
X056782Y039240D03*
X056782Y038740D03*
X056782Y038240D03*
X056782Y037740D03*
X056782Y037240D03*
X056782Y036740D03*
X056782Y036240D03*
X056782Y035740D03*
X049442Y035740D03*
X049442Y036240D03*
X049442Y036740D03*
X049442Y037240D03*
X049442Y037740D03*
X049442Y038240D03*
X049442Y038740D03*
X049442Y039240D03*
X049442Y039740D03*
X049442Y040240D03*
X049442Y040740D03*
X049442Y041240D03*
X045482Y041240D03*
X045482Y040740D03*
X045482Y040240D03*
X045482Y039740D03*
X045482Y039240D03*
X045482Y038740D03*
X045482Y038240D03*
X045482Y037740D03*
X045482Y037240D03*
X045482Y036740D03*
X045482Y036240D03*
X045482Y035740D03*
D21*
X044686Y035990D02*
X044238Y035990D01*
X044238Y034990D02*
X044686Y034990D01*
X044686Y033990D02*
X044238Y033990D01*
X044238Y032990D02*
X044686Y032990D01*
X044686Y036990D02*
X044238Y036990D01*
X044238Y037990D02*
X044686Y037990D01*
X044686Y038990D02*
X044238Y038990D01*
X044238Y039990D02*
X044686Y039990D01*
X044686Y040990D02*
X044238Y040990D01*
X044238Y041990D02*
X044686Y041990D01*
X044686Y042990D02*
X044238Y042990D01*
X044238Y043990D02*
X044686Y043990D01*
X050238Y043990D02*
X050686Y043990D01*
X050686Y042990D02*
X050238Y042990D01*
X050238Y041990D02*
X050686Y041990D01*
X050686Y040990D02*
X050238Y040990D01*
X050238Y039990D02*
X050686Y039990D01*
X050686Y038990D02*
X050238Y038990D01*
X050238Y037990D02*
X050686Y037990D01*
X050686Y036990D02*
X050238Y036990D01*
X050238Y035990D02*
X050686Y035990D01*
X050686Y034990D02*
X050238Y034990D01*
X050238Y033990D02*
X050686Y033990D01*
X050686Y032990D02*
X050238Y032990D01*
X055538Y032990D02*
X055986Y032990D01*
X055986Y033990D02*
X055538Y033990D01*
X055538Y034990D02*
X055986Y034990D01*
X055986Y035990D02*
X055538Y035990D01*
X055538Y036990D02*
X055986Y036990D01*
X055986Y037990D02*
X055538Y037990D01*
X055538Y038990D02*
X055986Y038990D01*
X055986Y039990D02*
X055538Y039990D01*
X055538Y040990D02*
X055986Y040990D01*
X055986Y041990D02*
X055538Y041990D01*
X055538Y042990D02*
X055986Y042990D01*
X055986Y043990D02*
X055538Y043990D01*
X061538Y043990D02*
X061986Y043990D01*
X061986Y042990D02*
X061538Y042990D01*
X061538Y041990D02*
X061986Y041990D01*
X061986Y040990D02*
X061538Y040990D01*
X061538Y039990D02*
X061986Y039990D01*
X061986Y038990D02*
X061538Y038990D01*
X061538Y037990D02*
X061986Y037990D01*
X061986Y036990D02*
X061538Y036990D01*
X061538Y035990D02*
X061986Y035990D01*
X061986Y034990D02*
X061538Y034990D01*
X061538Y033990D02*
X061986Y033990D01*
X061986Y032990D02*
X061538Y032990D01*
X061362Y057566D02*
X061362Y058014D01*
X060362Y058014D02*
X060362Y057566D01*
X059362Y057566D02*
X059362Y058014D01*
X058362Y058014D02*
X058362Y057566D01*
X057362Y057566D02*
X057362Y058014D01*
X056362Y058014D02*
X056362Y057566D01*
X055362Y057566D02*
X055362Y058014D01*
X055362Y060566D02*
X055362Y061014D01*
X056362Y061014D02*
X056362Y060566D01*
X057362Y060566D02*
X057362Y061014D01*
X058362Y061014D02*
X058362Y060566D01*
X059362Y060566D02*
X059362Y061014D01*
X060362Y061014D02*
X060362Y060566D01*
X061362Y060566D02*
X061362Y061014D01*
X062362Y061014D02*
X062362Y060566D01*
X063362Y060566D02*
X063362Y061014D01*
X063362Y058014D02*
X063362Y057566D01*
X062362Y057566D02*
X062362Y058014D01*
X024086Y017390D02*
X023638Y017390D01*
X023638Y016390D02*
X024086Y016390D01*
X024086Y015390D02*
X023638Y015390D01*
X023638Y014390D02*
X024086Y014390D01*
X024086Y013390D02*
X023638Y013390D01*
X023638Y012390D02*
X024086Y012390D01*
X024086Y011390D02*
X023638Y011390D01*
X023638Y010390D02*
X024086Y010390D01*
X021086Y010390D02*
X020638Y010390D01*
X020638Y011390D02*
X021086Y011390D01*
X021086Y012390D02*
X020638Y012390D01*
X020638Y013390D02*
X021086Y013390D01*
X021086Y014390D02*
X020638Y014390D01*
X020638Y015390D02*
X021086Y015390D01*
X021086Y016390D02*
X020638Y016390D01*
X020638Y017390D02*
X021086Y017390D01*
X005312Y051516D02*
X005312Y051964D01*
X004312Y051964D02*
X004312Y051516D01*
X003312Y051516D02*
X003312Y051964D01*
X003312Y053316D02*
X003312Y053764D01*
X003312Y055116D02*
X003312Y055564D01*
X004312Y055564D02*
X004312Y055116D01*
X005312Y055116D02*
X005312Y055564D01*
X005312Y056916D02*
X005312Y057364D01*
X004312Y057364D02*
X004312Y056916D01*
X003312Y056916D02*
X003312Y057364D01*
X003312Y058766D02*
X003312Y059214D01*
X004312Y059214D02*
X004312Y058766D01*
X005312Y058766D02*
X005312Y059214D01*
X005312Y060566D02*
X005312Y061014D01*
X004312Y061014D02*
X004312Y060566D01*
X003312Y060566D02*
X003312Y061014D01*
X004312Y053764D02*
X004312Y053316D01*
X005312Y053316D02*
X005312Y053764D01*
D22*
X007162Y060280D02*
X007162Y060700D01*
X007662Y060700D02*
X007662Y060280D01*
X008162Y060280D02*
X008162Y060700D01*
X008662Y060700D02*
X008662Y060280D01*
X010162Y060280D02*
X010162Y060700D01*
X010662Y060700D02*
X010662Y060280D01*
X011162Y060280D02*
X011162Y060700D01*
X011662Y060700D02*
X011662Y060280D01*
X013162Y060280D02*
X013162Y060700D01*
X013662Y060700D02*
X013662Y060280D01*
X014162Y060280D02*
X014162Y060700D01*
X014662Y060700D02*
X014662Y060280D01*
X016162Y060280D02*
X016162Y060700D01*
X016662Y060700D02*
X016662Y060280D01*
X017162Y060280D02*
X017162Y060700D01*
X017662Y060700D02*
X017662Y060280D01*
X019162Y060280D02*
X019162Y060700D01*
X019662Y060700D02*
X019662Y060280D01*
X020162Y060280D02*
X020162Y060700D01*
X020662Y060700D02*
X020662Y060280D01*
X022162Y060280D02*
X022162Y060700D01*
X022662Y060700D02*
X022662Y060280D01*
X023162Y060280D02*
X023162Y060700D01*
X023662Y060700D02*
X023662Y060280D01*
X025162Y060280D02*
X025162Y060700D01*
X025662Y060700D02*
X025662Y060280D01*
X026162Y060280D02*
X026162Y060700D01*
X026662Y060700D02*
X026662Y060280D01*
X028162Y060280D02*
X028162Y060700D01*
X028662Y060700D02*
X028662Y060280D01*
X029162Y060280D02*
X029162Y060700D01*
X029662Y060700D02*
X029662Y060280D01*
X031162Y060280D02*
X031162Y060700D01*
X031662Y060700D02*
X031662Y060280D01*
X032162Y060280D02*
X032162Y060700D01*
X032662Y060700D02*
X032662Y060280D01*
X034162Y060280D02*
X034162Y060700D01*
X034662Y060700D02*
X034662Y060280D01*
X035162Y060280D02*
X035162Y060700D01*
X035662Y060700D02*
X035662Y060280D01*
X037162Y060280D02*
X037162Y060700D01*
X037662Y060700D02*
X037662Y060280D01*
X038162Y060280D02*
X038162Y060700D01*
X038662Y060700D02*
X038662Y060280D01*
X040162Y060280D02*
X040162Y060700D01*
X040662Y060700D02*
X040662Y060280D01*
X041162Y060280D02*
X041162Y060700D01*
X041662Y060700D02*
X041662Y060280D01*
X043162Y060280D02*
X043162Y060700D01*
X043662Y060700D02*
X043662Y060280D01*
X044162Y060280D02*
X044162Y060700D01*
X044662Y060700D02*
X044662Y060280D01*
X046162Y060280D02*
X046162Y060700D01*
X046662Y060700D02*
X046662Y060280D01*
X047162Y060280D02*
X047162Y060700D01*
X047662Y060700D02*
X047662Y060280D01*
X049162Y060280D02*
X049162Y060700D01*
X049662Y060700D02*
X049662Y060280D01*
X050162Y060280D02*
X050162Y060700D01*
X050662Y060700D02*
X050662Y060280D01*
X052162Y060280D02*
X052162Y060700D01*
X052662Y060700D02*
X052662Y060280D01*
X053162Y060280D02*
X053162Y060700D01*
X053662Y060700D02*
X053662Y060280D01*
D23*
X057762Y014690D03*
D24*
X057762Y012690D03*
D25*
X004334Y004162D03*
X004334Y063218D03*
X063389Y063218D03*
X063389Y004162D03*
D26*
X049612Y010640D03*
X049612Y011640D03*
X049612Y012640D03*
X049612Y013640D03*
X049612Y014640D03*
X049612Y015640D03*
X048612Y015640D03*
X048612Y014640D03*
X048612Y013640D03*
X048612Y012640D03*
X048612Y011640D03*
X048612Y010640D03*
X036112Y010640D03*
X036112Y011640D03*
X036112Y012640D03*
X036112Y013640D03*
X036112Y014640D03*
X036112Y015640D03*
X035112Y015640D03*
X035112Y014640D03*
X035112Y013640D03*
X035112Y012640D03*
X035112Y011640D03*
X035112Y010640D03*
X031762Y007090D03*
X031762Y006090D03*
X030762Y006090D03*
X030762Y007090D03*
X029762Y007090D03*
X029762Y006090D03*
X026162Y018790D03*
X025162Y018790D03*
X025162Y019790D03*
X026162Y019790D03*
X024162Y019790D03*
X023162Y019790D03*
X023162Y018790D03*
X024162Y018790D03*
X022162Y018790D03*
X021162Y018790D03*
X021162Y019790D03*
X022162Y019790D03*
X020162Y019790D03*
X020162Y018790D03*
D27*
X050362Y006396D02*
X050362Y005990D01*
X050862Y006384D02*
X050862Y006790D01*
X051362Y006790D02*
X051362Y006384D01*
X051862Y006396D02*
X051862Y005990D01*
X052362Y006384D02*
X052362Y006790D01*
X052862Y006790D02*
X052862Y006384D01*
X053362Y006396D02*
X053362Y005990D01*
X057162Y005990D02*
X057162Y006396D01*
X057662Y006384D02*
X057662Y006790D01*
X058162Y006790D02*
X058162Y006384D01*
X058662Y006396D02*
X058662Y005990D01*
X059162Y006384D02*
X059162Y006790D01*
X059662Y006790D02*
X059662Y006384D01*
X060162Y006396D02*
X060162Y005990D01*
D28*
X061217Y006390D03*
X056107Y006390D03*
X054417Y006390D03*
X049307Y006390D03*
D29*
X032262Y012760D02*
X032262Y013420D01*
X031262Y013420D02*
X031262Y012760D01*
X030262Y012760D02*
X030262Y013420D01*
X029262Y013420D02*
X029262Y012760D01*
X029262Y015760D02*
X029262Y016420D01*
X030262Y016420D02*
X030262Y015760D01*
X031262Y015760D02*
X031262Y016420D01*
X032262Y016420D02*
X032262Y015760D01*
D30*
X014522Y007690D03*
X013982Y006690D03*
X012902Y006690D03*
X013442Y007690D03*
X012362Y007690D03*
X011822Y006690D03*
X011282Y007690D03*
X010202Y007690D03*
X010742Y006690D03*
D31*
X007432Y007190D03*
X017292Y007190D03*
D32*
X061262Y011710D02*
X061262Y012470D01*
X061262Y015710D02*
X061262Y016470D01*
D33*
X003932Y030990D02*
X003192Y030990D01*
X003192Y031990D02*
X003932Y031990D01*
X003932Y032990D02*
X003192Y032990D01*
X003192Y033990D02*
X003932Y033990D01*
X003932Y034990D02*
X003192Y034990D01*
X003192Y035990D02*
X003932Y035990D01*
X003932Y036990D02*
X003192Y036990D01*
D34*
X035095Y008989D03*
X036788Y008989D03*
X038895Y008989D03*
X040588Y008989D03*
X040628Y006391D03*
X038895Y006391D03*
X036828Y006391D03*
X035095Y006391D03*
D35*
X035062Y006054D03*
X036822Y006054D03*
X038862Y006054D03*
X040622Y006054D03*
D36*
X040622Y009444D03*
X038862Y009444D03*
X036822Y009444D03*
X035062Y009444D03*
D37*
X033362Y004990D03*
X034262Y016890D03*
D38*
X027862Y022590D03*
X024862Y029690D03*
X022862Y029690D03*
X020862Y029690D03*
X018862Y029690D03*
X016862Y029690D03*
X014862Y029690D03*
X012862Y029690D03*
X010862Y029690D03*
X008862Y029690D03*
X008862Y036690D03*
X010862Y036690D03*
X012862Y036690D03*
X014862Y036690D03*
X016862Y036690D03*
X018862Y036690D03*
X020862Y036690D03*
X022862Y036690D03*
X024862Y036690D03*
X024862Y041690D03*
X022862Y041690D03*
X020862Y041690D03*
X018862Y042690D03*
X018862Y046690D03*
X019862Y046690D03*
X016862Y046690D03*
X015862Y046690D03*
X013862Y046690D03*
X012862Y046690D03*
X010862Y046690D03*
X009862Y046690D03*
X007862Y046690D03*
X018862Y022590D03*
X014862Y016690D03*
X013862Y016690D03*
X013862Y015690D03*
X014862Y015690D03*
X014862Y014690D03*
X013862Y014690D03*
X006862Y014690D03*
X006862Y015690D03*
X006862Y016690D03*
X005862Y016690D03*
X005862Y015690D03*
X005862Y014690D03*
X004862Y007690D03*
X004862Y006690D03*
X003862Y006690D03*
X003862Y007690D03*
X024362Y007690D03*
X024362Y006690D03*
X029762Y009790D03*
X032662Y009790D03*
X033362Y003190D03*
X034862Y003190D03*
X047862Y006690D03*
X052862Y011690D03*
X052862Y012690D03*
X052862Y013690D03*
X052862Y014690D03*
X060562Y021290D03*
X063862Y019690D03*
X063862Y018690D03*
X063862Y017690D03*
X063862Y007690D03*
X063862Y006690D03*
X044862Y021690D03*
X043862Y021690D03*
X042862Y021690D03*
X042862Y022690D03*
X043862Y025690D03*
X043862Y026690D03*
X044862Y026690D03*
X044862Y025690D03*
X044862Y027690D03*
X043862Y027690D03*
X034862Y035690D03*
X034862Y036690D03*
X034862Y037690D03*
X033862Y037690D03*
X033862Y036690D03*
X033862Y035690D03*
X033862Y038690D03*
X034862Y038690D03*
X034862Y039690D03*
X033862Y039690D03*
X060562Y028490D03*
D39*
X063662Y027890D03*
X062762Y021890D03*
X041362Y007190D03*
X034062Y007790D03*
X026462Y007590D03*
X019662Y011990D03*
X017162Y010390D03*
X017862Y026690D03*
X030462Y027390D03*
X031662Y028890D03*
X054562Y048990D03*
X061762Y048990D03*
X004862Y039690D03*
M02*
