%
M48
M72
T01C0.0161
T02C0.0240
T03C0.0291
T04C0.0299
T05C0.0315
T06C0.0319
T07C0.0358
T08C0.0402
T09C0.0433
T10C0.0472
T11C0.0531
T12C0.1299
%
T01
X15162Y7190
X20662Y20490
X21862Y21390
X23862Y21690
X24362Y20490
X24862Y20790
X25362Y21090
X25862Y22090
X28362Y19690
X28862Y19990
X29362Y19390
X29862Y19090
X30362Y18190
X30862Y17890
X31462Y18790
X31862Y18490
X33262Y16490
X33762Y16590
X38462Y20490
X38762Y20790
X39062Y21090
X39662Y21390
X40062Y21690
X39362Y22390
X42362Y19090
X42762Y19390
X43162Y19690
X43562Y19990
X41962Y18790
X41562Y18490
X41162Y18190
X40862Y17890
X49962Y7290
X52862Y7290
X55362Y6690
X55362Y7890
X63162Y29090
X62862Y29490
X62762Y29890
X62462Y30290
X62662Y30690
X62362Y31090
X62062Y31490
X61762Y31890
X60162Y33990
X59762Y34990
X59362Y35990
X58762Y36440
X58012Y35990
X57712Y34990
X58762Y35190
X58662Y34040
X57412Y33990
X54862Y36440
X54862Y37440
X54862Y38440
X54862Y39440
X54962Y40490
X54062Y41390
X54112Y42440
X54962Y42990
X55612Y44940
X55612Y45690
X56362Y45690
X56362Y46440
X55612Y46440
X53862Y46440
X53862Y45940
X53862Y45440
X53862Y44940
X57162Y42990
X57162Y42490
X57112Y41990
X57762Y40990
X58062Y39990
X57512Y39790
X57762Y38990
X57912Y38440
X58112Y37640
X57762Y37390
X59662Y38140
X60112Y39790
X59462Y40840
X60412Y41990
X59662Y42540
X59862Y43940
X60112Y46440
X60112Y47190
X60112Y47940
X59362Y47940
X59362Y47190
X59362Y46440
X58862Y50690
X58862Y51690
X58862Y52690
X58862Y53690
X58862Y54690
X57862Y54690
X57862Y53690
X56862Y53690
X56862Y54690
X56862Y52690
X57862Y52690
X57862Y51690
X56862Y51690
X56862Y50690
X57862Y50690
X52862Y54690
X51912Y55940
X50912Y56640
X50862Y57690
X51862Y57690
X52862Y57690
X53862Y57690
X53912Y56640
X52912Y56290
X50862Y54690
X49912Y56290
X48912Y55940
X47912Y56640
X47862Y57690
X46862Y57690
X45862Y57690
X44862Y57690
X44912Y56640
X45912Y55940
X46912Y56290
X46862Y54690
X48862Y54690
X48862Y57690
X49862Y57690
X50162Y62290
X53212Y61890
X55312Y64690
X56312Y64290
X57312Y63890
X58312Y63490
X59312Y63090
X60312Y62690
X61312Y62290
X47162Y62690
X44162Y63090
X41162Y63490
X38162Y63890
X35162Y64290
X32162Y64690
X29162Y61890
X27862Y61690
X26162Y62290
X24862Y61690
X23162Y62690
X21862Y62690
X21862Y61690
X20162Y63090
X18862Y62690
X18862Y61690
X17162Y63490
X15862Y62690
X15862Y61690
X14162Y63890
X12862Y63690
X12862Y62690
X12862Y61690
X9862Y61690
X9862Y62690
X9862Y63690
X8862Y63690
X8162Y64690
X6862Y63690
X6862Y62690
X6862Y61690
X4912Y59890
X6912Y55940
X7912Y56290
X8912Y56640
X9912Y55940
X10912Y56290
X11912Y56640
X12912Y55940
X13912Y56290
X14912Y56640
X15912Y55940
X16912Y56290
X17912Y56640
X18912Y55940
X19912Y56290
X20912Y56640
X21912Y55940
X22912Y56290
X23912Y56640
X24912Y55940
X25912Y56290
X26912Y56640
X27912Y55940
X28912Y56290
X29912Y56640
X30912Y55940
X31912Y56290
X32912Y56640
X32862Y57690
X33862Y57690
X34862Y57690
X35862Y57690
X36862Y57690
X37862Y57690
X38862Y57690
X39862Y57690
X38912Y56640
X37912Y56290
X36912Y55940
X35912Y56640
X34912Y56290
X33912Y55940
X34862Y54690
X36862Y54690
X39862Y54690
X39912Y55940
X40912Y56290
X41912Y56640
X41862Y57690
X40862Y57690
X42862Y57690
X43862Y57690
X43912Y56290
X42912Y55940
X42862Y54690
X44862Y54690
X45762Y44740
X45862Y43940
X45562Y42990
X46362Y42990
X46562Y42690
X46762Y42290
X45962Y41990
X46762Y40990
X46862Y39290
X46962Y38790
X47262Y37990
X47262Y37590
X46812Y35990
X46462Y34990
X46112Y33990
X48462Y34990
X48112Y35990
X48862Y33990
X51362Y36440
X51362Y37440
X51362Y38440
X51362Y39440
X51362Y40690
X53362Y40440
X53112Y39440
X53112Y38440
X53112Y37440
X53112Y36440
X54062Y35690
X54062Y32290
X48362Y40190
X48412Y41990
X48812Y42990
X48662Y43940
X48662Y44740
X43362Y44640
X43362Y43940
X40662Y41390
X43062Y40440
X43062Y39440
X43062Y38540
X42962Y37540
X42962Y36540
X39362Y33990
X38862Y34990
X37963Y33391
X38362Y32590
X36862Y34490
X34862Y32390
X35862Y31090
X36362Y30690
X36862Y30290
X37362Y29890
X37862Y29490
X38362Y29090
X31762Y31890
X31062Y31490
X28662Y32990
X28962Y33990
X29262Y34990
X28362Y31990
X27162Y25190
X25862Y24690
X23362Y25190
X29262Y41390
X5862Y64690
X4262Y50190
X4562Y49190
X4862Y48190
X62562Y39440
X62562Y38440
T02
X60562Y28490
X60562Y21290
X63862Y19690
X63862Y18690
X63862Y17690
X63862Y7690
X63862Y6690
X52862Y11690
X52862Y12690
X52862Y13690
X52862Y14690
X47862Y6690
X34862Y3190
X33362Y3190
X32662Y9790
X29762Y9790
X24362Y7690
X24362Y6690
X14862Y14690
X14862Y15690
X13862Y15690
X13862Y14690
X13862Y16690
X14862Y16690
X18862Y22590
X18862Y29690
X20862Y29690
X22862Y29690
X24862Y29690
X27862Y22590
X16862Y29690
X14862Y29690
X12862Y29690
X10862Y29690
X8862Y29690
X8862Y36690
X10862Y36690
X12862Y36690
X14862Y36690
X16862Y36690
X18862Y36690
X20862Y36690
X22862Y36690
X24862Y36690
X24862Y41690
X22862Y41690
X20862Y41690
X18862Y42690
X18862Y46690
X19862Y46690
X16862Y46690
X15862Y46690
X13862Y46690
X12862Y46690
X10862Y46690
X9862Y46690
X7862Y46690
X33862Y39690
X34862Y39690
X34862Y38690
X33862Y38690
X33862Y37690
X34862Y37690
X34862Y36690
X34862Y35690
X33862Y35690
X33862Y36690
X43862Y27690
X44862Y27690
X44862Y26690
X44862Y25690
X43862Y25690
X43862Y26690
X42862Y22690
X42862Y21690
X43862Y21690
X44862Y21690
X6862Y16690
X6862Y15690
X6862Y14690
X5862Y14690
X5862Y15690
X5862Y16690
X4862Y7690
X4862Y6690
X3862Y6690
X3862Y7690
T03
X50362Y6193
X50862Y6587
X51362Y6587
X51862Y6193
X52362Y6587
X52862Y6587
X53362Y6193
X57162Y6193
X57662Y6587
X58162Y6587
X58662Y6193
X59162Y6587
X59662Y6587
X60162Y6193
T04
X34262Y16890
X33362Y4990
X32662Y60490
X32162Y60490
X31662Y60490
X31162Y60490
X29662Y60490
X29162Y60490
X28662Y60490
X28162Y60490
X26662Y60490
X26162Y60490
X25662Y60490
X25162Y60490
X23662Y60490
X23162Y60490
X22662Y60490
X22162Y60490
X20662Y60490
X20162Y60490
X19662Y60490
X19162Y60490
X17662Y60490
X17162Y60490
X16662Y60490
X16162Y60490
X14662Y60490
X14162Y60490
X13662Y60490
X13162Y60490
X11662Y60490
X11162Y60490
X10662Y60490
X10162Y60490
X8662Y60490
X8162Y60490
X7662Y60490
X7162Y60490
X34162Y60490
X34662Y60490
X35162Y60490
X35662Y60490
X37162Y60490
X37662Y60490
X38162Y60490
X38662Y60490
X40162Y60490
X40662Y60490
X41162Y60490
X41662Y60490
X43162Y60490
X43662Y60490
X44162Y60490
X44662Y60490
X46162Y60490
X46662Y60490
X47162Y60490
X47662Y60490
X49162Y60490
X49662Y60490
X50162Y60490
X50662Y60490
X52162Y60490
X52662Y60490
X53162Y60490
X53662Y60490
T05
X55362Y53490
X60362Y53490
X40862Y44190
X40862Y43190
X39862Y43190
X39862Y44190
X38862Y44190
X38862Y43190
X37862Y43190
X37862Y44190
X36862Y44190
X36862Y43190
X35862Y43190
X35862Y44190
X34862Y44190
X34862Y43190
X33862Y43190
X33862Y44190
X32862Y44190
X32862Y43190
X31862Y43190
X31862Y44190
X30862Y44190
X30862Y43190
X29862Y43190
X29862Y44190
X28862Y44190
X28862Y43190
X27862Y43190
X27862Y44190
X26862Y44190
X26862Y43190
X25862Y43190
X25862Y44190
X24862Y44190
X24862Y43190
X23862Y43190
X23862Y44190
X22862Y44190
X22862Y43190
X21862Y43190
X21862Y44190
X20862Y44190
X20862Y43190
X19862Y43190
X19862Y44190
X18862Y44190
X18862Y43190
X17862Y43190
X17862Y44190
X16862Y44190
X16862Y43190
X5862Y44190
X4862Y44190
X16862Y24190
X17862Y24190
X18862Y24190
X19862Y24190
X20862Y24190
X21862Y24190
X22862Y24190
X23862Y24190
X24862Y24190
X25862Y24190
X26862Y24190
X27862Y24190
X28862Y24190
X29862Y24190
X30862Y24190
X31862Y24190
X32862Y24190
X33862Y24190
X34862Y24190
X35862Y24190
X36862Y24190
X37862Y24190
X38862Y24190
X39862Y24190
X40862Y24190
X40862Y23190
X39862Y23190
X38862Y23190
X37862Y23190
X36862Y23190
X35862Y23190
X34862Y23190
X33862Y23190
X32862Y23190
X31862Y23190
X30862Y23190
X29862Y23190
X28862Y23190
X27862Y23190
X26862Y23190
X25862Y23190
X24862Y23190
X23862Y23190
X22862Y23190
X21862Y23190
X20862Y23190
X19862Y23190
X18862Y23190
X17862Y23190
X16862Y23190
X14755Y18971
X13967Y18971
X13180Y18971
X12393Y18971
X11605Y18971
X10818Y18971
X10030Y18971
X9243Y18971
X8456Y18971
X7668Y18971
X5862Y23190
X4862Y23190
X7668Y10309
X8456Y10309
X9243Y10309
X10030Y10309
X10818Y10309
X11605Y10309
X12393Y10309
X13180Y10309
X13967Y10309
X14755Y10309
T06
X13362Y9190
X12762Y9190
X9762Y9190
X9062Y9190
X7062Y9190
X6062Y9190
X5062Y9190
X4462Y11290
X3462Y11290
X3462Y14290
X4462Y14290
X4062Y17190
X3062Y17190
X3062Y19490
X4062Y19490
X3162Y26690
X3162Y29690
X3162Y38390
X4862Y39690
X3162Y41390
X3112Y45140
X3112Y46190
X3112Y47190
X3112Y48190
X3112Y49190
X3112Y50190
X3312Y51740
X4312Y51740
X5312Y51740
X6112Y50190
X6112Y49190
X6112Y48190
X6112Y47190
X6112Y46190
X6112Y45140
X6912Y53490
X5312Y53540
X4312Y53540
X3312Y53540
X3312Y55340
X4312Y55340
X5312Y55340
X5312Y57140
X4312Y57140
X3312Y57140
X3312Y58990
X4312Y58990
X5312Y58990
X5312Y60790
X4312Y60790
X3312Y60790
X6912Y58490
X7912Y58490
X8912Y58490
X9912Y58490
X10912Y58490
X11912Y58490
X12912Y58490
X13912Y58490
X14912Y58490
X15912Y58490
X16912Y58490
X17912Y58490
X18912Y58490
X19912Y58490
X20912Y58490
X21912Y58490
X22912Y58490
X23912Y58490
X24912Y58490
X25912Y58490
X26912Y58490
X27912Y58490
X28912Y58490
X29912Y58490
X30912Y58490
X31912Y58490
X32912Y58490
X33912Y58490
X34912Y58490
X35912Y58490
X36912Y58490
X37912Y58490
X38912Y58490
X39912Y58490
X40912Y58490
X41912Y58490
X42912Y58490
X43912Y58490
X44912Y58490
X45912Y58490
X46912Y58490
X47912Y58490
X48912Y58490
X49912Y58490
X50912Y58490
X51912Y58490
X52912Y58490
X53912Y58490
X55362Y57790
X56362Y57790
X57362Y57790
X58362Y57790
X59362Y57790
X60362Y57790
X61362Y57790
X62362Y57790
X63362Y57790
X63362Y60790
X62362Y60790
X61362Y60790
X60362Y60790
X59362Y60790
X58362Y60790
X57362Y60790
X56362Y60790
X55362Y60790
X53912Y55490
X52912Y55490
X51912Y55490
X50912Y55490
X49912Y55490
X48912Y55490
X47912Y55490
X46912Y55490
X45912Y55490
X44912Y55490
X43912Y55490
X42912Y55490
X41912Y55490
X40912Y55490
X39912Y55490
X38912Y55490
X37912Y55490
X36912Y55490
X35912Y55490
X34912Y55490
X33912Y55490
X32912Y55490
X31912Y55490
X30912Y55490
X29912Y55490
X28912Y55490
X27912Y55490
X26912Y55490
X25912Y55490
X24912Y55490
X23912Y55490
X22912Y55490
X21912Y55490
X20912Y55490
X19912Y55490
X18912Y55490
X17912Y55490
X16912Y55490
X15912Y55490
X14912Y55490
X13912Y55490
X12912Y55490
X11912Y55490
X10912Y55490
X9912Y55490
X8912Y55490
X7912Y55490
X6912Y55490
X8912Y53490
X9912Y53490
X11912Y53490
X12912Y53490
X14912Y53490
X15912Y53490
X17912Y53490
X18912Y53490
X20912Y53490
X21912Y53490
X23912Y53490
X24912Y53490
X26912Y53490
X27912Y53490
X29912Y53490
X30912Y53490
X32912Y53490
X33912Y53490
X35912Y53490
X36912Y53490
X38912Y53490
X39912Y53490
X41912Y53490
X42912Y53490
X44912Y53490
X45912Y53490
X47912Y53490
X48912Y53490
X50912Y53490
X51912Y53490
X53912Y53490
X55362Y51890
X55362Y50890
X54562Y48990
X55762Y43990
X55762Y42990
X55762Y41990
X55762Y40990
X55762Y39990
X55762Y38990
X55762Y37990
X55762Y36990
X55762Y35990
X55762Y34990
X55762Y33990
X55762Y32990
X50462Y32990
X50462Y33990
X50462Y34990
X50462Y35990
X50462Y36990
X50462Y37990
X50462Y38990
X50462Y39990
X50462Y40990
X50462Y41990
X50462Y42990
X50462Y43990
X51562Y44040
X51562Y42040
X44462Y41990
X44462Y40990
X44462Y39990
X44462Y38990
X44462Y37990
X44462Y36990
X44462Y35990
X44462Y34990
X44462Y33990
X44462Y32990
X35362Y28890
X33962Y28890
X31662Y28890
X30462Y27390
X33962Y25890
X35362Y25890
X32262Y17390
X33362Y15590
X33362Y13590
X31762Y11690
X30762Y11690
X29762Y11690
X28462Y9090
X27462Y9090
X26462Y8290
X26462Y7590
X26462Y6290
X27462Y6090
X28462Y6090
X29762Y8690
X30762Y8690
X31762Y8690
X34062Y7790
X37112Y10640
X37112Y11640
X37112Y12640
X37112Y13640
X37112Y14640
X37112Y15640
X40112Y15640
X40612Y15640
X40612Y14640
X40112Y14640
X40112Y13640
X40612Y13640
X40612Y12640
X40112Y12640
X40112Y11640
X40612Y11640
X40612Y10640
X40112Y10640
X43612Y10640
X44112Y10640
X44112Y11640
X43612Y11640
X43612Y12640
X44112Y12640
X44112Y13640
X43612Y13640
X43612Y14640
X44112Y14640
X44112Y15640
X43612Y15640
X47112Y15640
X47112Y14640
X47112Y13640
X47112Y12640
X47112Y11640
X47112Y10640
X41362Y7190
X29262Y17390
X25562Y17290
X25562Y16290
X25562Y15090
X25562Y14090
X25562Y12890
X25562Y11890
X25562Y10690
X25562Y9690
X23862Y10390
X23862Y11390
X23862Y12390
X23862Y13390
X23862Y14390
X23862Y15390
X23862Y16390
X23862Y17390
X20862Y17390
X20862Y16390
X20862Y15390
X20862Y14390
X20862Y13390
X20862Y12390
X19662Y11990
X19662Y11390
X19662Y10390
X20862Y10390
X20862Y11390
X22062Y8990
X21062Y8290
X21062Y6290
X22062Y5990
X23162Y5990
X23162Y8990
X17162Y10390
X16362Y9190
X16362Y21890
X18362Y21890
X17862Y26690
X17862Y40090
X18862Y40090
X18862Y42090
X17862Y42090
X44462Y42990
X44462Y43990
X59812Y45190
X61812Y45190
X61762Y43990
X61762Y42990
X61762Y41990
X61762Y40990
X61762Y39990
X61762Y38990
X61762Y37990
X61762Y36990
X61762Y35990
X61762Y34990
X61762Y33990
X61762Y32990
X61462Y28490
X62862Y28490
X63662Y27890
X63162Y26290
X63162Y25190
X61162Y25190
X61162Y26290
X61462Y22990
X62862Y22990
X62762Y21890
X61762Y48990
X60362Y50890
X60362Y51890
T07
X64362Y28390
X64362Y27390
X61262Y19390
X61262Y18390
X49612Y15640
X49612Y14640
X49612Y13640
X49612Y12640
X49612Y11640
X49612Y10640
X48612Y10640
X48612Y11640
X48612Y12640
X48612Y13640
X48612Y14640
X48612Y15640
X36112Y15640
X36112Y14640
X36112Y13640
X36112Y12640
X36112Y11640
X36112Y10640
X35112Y10640
X35112Y11640
X35112Y12640
X35112Y13640
X35112Y14640
X35112Y15640
X31762Y7090
X31762Y6090
X30762Y6090
X30762Y7090
X29762Y7090
X29762Y6090
X26162Y18790
X25162Y18790
X25162Y19790
X26162Y19790
X24162Y19790
X23162Y19790
X23162Y18790
X24162Y18790
X22162Y18790
X21162Y18790
X21162Y19790
X22162Y19790
X20162Y19790
X20162Y18790
T08
X29262Y16090
X30262Y16090
X31262Y16090
X32262Y16090
X32262Y13090
X31262Y13090
X30262Y13090
X29262Y13090
X29762Y4190
X30762Y4190
X31762Y4190
X28462Y4190
X27462Y4190
X26462Y4190
X25462Y4190
X24462Y4190
X23162Y4190
X22162Y4190
X21162Y4190
X20162Y4190
X19162Y4190
X14522Y7690
X13982Y6690
X12902Y6690
X13442Y7690
X12362Y7690
X11822Y6690
X11282Y7690
X10202Y7690
X10742Y6690
X3562Y30990
X3562Y31990
X3562Y32990
X3562Y33990
X3562Y34990
X3562Y35990
X3562Y36990
X7912Y48990
X7912Y49990
X7912Y50990
X7912Y51990
X10912Y51990
X10912Y50990
X10912Y49990
X10912Y48990
X13912Y48990
X13912Y49990
X13912Y50990
X13912Y51990
X16912Y51990
X16912Y50990
X16912Y49990
X16912Y48990
X19912Y48990
X19912Y49990
X19912Y50990
X19912Y51990
X22912Y51990
X22912Y50990
X22912Y49990
X22912Y48990
X25912Y48990
X25912Y49990
X25912Y50990
X25912Y51990
X28912Y51990
X28912Y50990
X28912Y49990
X28912Y48990
X31912Y48990
X31912Y49990
X31912Y50990
X31912Y51990
X34912Y51990
X34912Y50990
X34912Y49990
X34912Y48990
X37912Y48990
X37912Y49990
X37912Y50990
X37912Y51990
X40912Y51990
X40912Y50990
X40912Y49990
X40912Y48990
X43912Y48990
X43912Y49990
X43912Y50990
X43912Y51990
X46912Y51990
X46912Y50990
X46912Y49990
X46912Y48990
X49912Y48990
X49912Y49990
X49912Y50990
X49912Y51990
X52912Y51990
X52912Y50990
X52912Y49990
X52912Y48990
X56262Y28490
X56262Y27490
X56262Y26490
X56262Y21290
X56262Y20290
X56262Y19290
X57762Y14690
X57762Y12690
X58062Y9590
X57062Y9590
X56062Y9590
X59062Y9590
X60062Y9590
X61062Y9590
X61262Y12090
X61262Y16090
X60862Y4190
X59862Y4190
X58862Y4190
X57862Y4190
X56862Y4190
X55862Y4190
X54662Y4190
X53662Y4190
X52662Y4190
X51662Y4190
X50662Y4190
X49662Y4190
X47862Y4190
X46862Y4190
X45862Y4190
X44862Y4190
X43862Y4190
X42862Y4190
X41562Y4190
X40562Y4190
X39562Y4190
X38562Y4190
X37562Y4190
X36562Y4190
T09
X36828Y6391
X35095Y6391
X35095Y8989
X36788Y8989
X38895Y8989
X40588Y8989
X40628Y6391
X38895Y6391
T10
X63962Y9790
X63962Y11790
X63962Y13790
X63962Y15790
T11
X61217Y6390
X56107Y6390
X54417Y6390
X49307Y6390
T12
X4334Y4162
X7432Y7190
X17292Y7190
X50362Y20290
X50362Y27490
X63389Y4162
X63389Y63218
X4334Y63218
M30
